<svg xmlns="http://www.w3.org/2000/svg" viewBox="0 0 431.1 84.08"><defs><style>.cls-1{isolation:isolate;}.cls-2{fill:#fff;}</style></defs><title>logo</title><g id="Layer_2" data-name="Layer 2"><g id="Layer_1-2" data-name="Layer 1"><g id="Layer_2-2" data-name="Layer 2"><g id="Layer_1-2-2" data-name="Layer 1-2"><g class="cls-1"><path class="cls-2" d="M20.61,29.49V65.58a5.14,5.14,0,0,0,1,3.59,3.61,3.61,0,0,0,2.69,1,3.9,3.9,0,0,0,2.34-.74,8.44,8.44,0,0,0,1.76-1.66,10,10,0,0,0,1.51-2.39l1.52.68q-.73,1.57-1.74,3.42A13.65,13.65,0,0,1,27,72.93a14,14,0,0,1-4.17,2.66,16.33,16.33,0,0,1-6.33,1.07A13.49,13.49,0,0,1,12.38,76a9.73,9.73,0,0,1-3.52-2A10,10,0,0,1,6.4,70.61a11.9,11.9,0,0,1-.93-4.94V29.49H0V26a14.87,14.87,0,0,0,3.81-.71,18.82,18.82,0,0,0,5-2.37,20,20,0,0,0,4.76-4.44,17,17,0,0,0,3.13-6.89h3.91V26h8c2.61,0,3.91-.44,3.91-1.32A.64.64,0,0,0,32,24c-.32-.11-.69-.26-1.1-.44a3.52,3.52,0,0,1-1.09-.76,2.18,2.18,0,0,1-.49-1.61A2.77,2.77,0,0,1,30.15,19a3.17,3.17,0,0,1,2.22-.78,3.05,3.05,0,0,1,1.54.37,3.31,3.31,0,0,1,1.1,1,4.63,4.63,0,0,1,.66,1.4,5.6,5.6,0,0,1,.22,1.56,6.93,6.93,0,0,1-1.83,5.05c-1.22,1.26-3.18,1.88-5.89,1.88Z"/><path class="cls-2" d="M53.56,34.57a27.24,27.24,0,0,1,4.11-4.64,21.66,21.66,0,0,1,2.07-1.71,19.38,19.38,0,0,1,2.44-1.49,14.12,14.12,0,0,1,2.74-1.05,11.22,11.22,0,0,1,3-.39,13.24,13.24,0,0,1,5.86,1.27,10.54,10.54,0,0,1,4.35,4.25,24.7,24.7,0,0,1,2.68,7.89,66.9,66.9,0,0,1,.93,12.18,52.32,52.32,0,0,1-1.27,12.3,35.15,35.15,0,0,1-3.32,8.89,22.94,22.94,0,0,1-4.64,6,23.88,23.88,0,0,1-5.22,3.64,21,21,0,0,1-5.08,1.83,24.14,24.14,0,0,1-4.2.56l-.49-2a9.29,9.29,0,0,0,3.91-2,11,11,0,0,0,2.88-4.81,41.92,41.92,0,0,0,1.78-9,140.52,140.52,0,0,0,.61-14.6,69,69,0,0,0-.56-9.84,21.17,21.17,0,0,0-1.47-5.61,5.18,5.18,0,0,0-2.05-2.54,4.82,4.82,0,0,0-2.32-.61,4.26,4.26,0,0,0-2.49.75,10.06,10.06,0,0,0-1.88,1.74,14.37,14.37,0,0,0-1.36,2,12.3,12.3,0,0,1-1,1.46V71.58a7.38,7.38,0,0,1-.19,1.54,3.68,3.68,0,0,1-.95,1.71,6,6,0,0,1-2.25,1.37,12,12,0,0,1-4.08.56,11.39,11.39,0,0,1-4.1-.61,6.25,6.25,0,0,1-2.27-1.44A3.88,3.88,0,0,1,38.77,73a7,7,0,0,1-.2-1.42v-63a4.61,4.61,0,0,0-.65-2.46,2.43,2.43,0,0,0-2.23-1,3.56,3.56,0,0,0-1.44.27,6.06,6.06,0,0,0-1.29.8L32,5a28.71,28.71,0,0,1,2.49-1.83,18.21,18.21,0,0,1,3-1.59A22.63,22.63,0,0,1,41,.44,17,17,0,0,1,44.87,0,11.65,11.65,0,0,1,49.8.85,6.27,6.27,0,0,1,52.39,3a5.91,5.91,0,0,1,1,2.64,19.34,19.34,0,0,1,.17,2.47Z"/><path class="cls-2" d="M104.39,53.56a13.86,13.86,0,0,0,.47,3.4,20.84,20.84,0,0,0,1.34,3.69,20.4,20.4,0,0,0,2.17,3.54,17.27,17.27,0,0,0,3,3,14.3,14.3,0,0,0,3.74,2.1,12.53,12.53,0,0,0,4.49.78,12.24,12.24,0,0,0,3.17-.39,12.41,12.41,0,0,0,2.74-1.08A17.8,17.8,0,0,0,127.93,67c.78-.6,1.56-1.25,2.34-1.93l1.22,1.17a30.85,30.85,0,0,1-2.88,3.32A22.84,22.84,0,0,1,124.37,73a24.41,24.41,0,0,1-5.82,2.64,25,25,0,0,1-7.56,1,22.93,22.93,0,0,1-8.28-1.54,20.39,20.39,0,0,1-7.15-4.61,22.49,22.49,0,0,1-5-7.67A28.27,28.27,0,0,1,88.67,52.1,28.32,28.32,0,0,1,89.79,44a25.92,25.92,0,0,1,3.06-6.69A24.66,24.66,0,0,1,97.34,32a27.84,27.84,0,0,1,5.39-3.73,26.07,26.07,0,0,1,5.79-2.25,23.16,23.16,0,0,1,5.69-.76,22.7,22.7,0,0,1,6.3.78,14.27,14.27,0,0,1,4.47,2.1,8.82,8.82,0,0,1,2.66,3.06,8,8,0,0,1,.88,3.63A6.89,6.89,0,0,1,127.2,39a12.15,12.15,0,0,1-3.52,3.2Zm9.82-9.91a8.49,8.49,0,0,0,1.05-.75,2.87,2.87,0,0,0,.66-.88,4.93,4.93,0,0,0,.36-1.27,11.06,11.06,0,0,0,.13-1.88,15.23,15.23,0,0,0-.27-2.71,10.75,10.75,0,0,0-.91-2.81,7,7,0,0,0-1.61-2.2,3.4,3.4,0,0,0-2.34-.88,4.5,4.5,0,0,0-3,1.05,8.09,8.09,0,0,0-2,2.71A16.85,16.85,0,0,0,105,37.82a41.32,41.32,0,0,0-.71,4.27c-.17,1.43-.26,2.81-.29,4.13s0,2.43,0,3.34Z"/><path class="cls-2" d="M164.6,28A50.62,50.62,0,0,0,162,18.87a30.81,30.81,0,0,0-4-7.3,18.3,18.3,0,0,0-5.27-4.83A12.26,12.26,0,0,0,146.39,5a11.79,11.79,0,0,0-3.54.49,14.18,14.18,0,0,0-4.69,2.42c-.51.4-.87.7-1.1.9l-1.27-1.71a16,16,0,0,1,2.86-2.83A18.78,18.78,0,0,1,142.33,2,23,23,0,0,1,146.56.54,18.62,18.62,0,0,1,151,0a25,25,0,0,1,12.69,3.15,26.33,26.33,0,0,1,9.13,8.91A44,44,0,0,1,178.32,26a81.5,81.5,0,0,1,1.86,18.11,55,55,0,0,1-1.64,14.16,30.4,30.4,0,0,1-4.66,10.23,19.54,19.54,0,0,1-7.35,6.2,22.13,22.13,0,0,1-9.74,2.08,23.35,23.35,0,0,1-7.64-1.34,19.27,19.27,0,0,1-7-4.37A22.85,22.85,0,0,1,137,63.11a32,32,0,0,1-2-12,32.1,32.1,0,0,1,1.73-10.93,24.52,24.52,0,0,1,4.67-8.08,19.75,19.75,0,0,1,14.94-6.77,14.92,14.92,0,0,1,3,.27,13.44,13.44,0,0,1,2.29.66,10.48,10.48,0,0,1,1.71.86C163.77,27.38,164.21,27.69,164.6,28Zm.59,21.48V47.29c0-1.09,0-2.34-.1-3.76s-.18-2.92-.34-4.52a30.06,30.06,0,0,0-.79-4.44,17.19,17.19,0,0,0-2.61-2.71,5.56,5.56,0,0,0-3.68-1.2c-2.54,0-4.41,1.66-5.59,5s-1.79,8.47-1.79,15.43a76.92,76.92,0,0,0,.42,8.4A34.44,34.44,0,0,0,152,66a11.52,11.52,0,0,0,2.19,4.24,4.16,4.16,0,0,0,3.2,1.52Q165.19,71.78,165.19,49.46Z"/><path class="cls-2" d="M202.1,53.56a13.82,13.82,0,0,0,.46,3.4,20.13,20.13,0,0,0,1.35,3.69,19.8,19.8,0,0,0,2.17,3.54,16.59,16.59,0,0,0,3,3,14.24,14.24,0,0,0,3.73,2.1,12.58,12.58,0,0,0,4.5.78,12.35,12.35,0,0,0,3.17-.39,12.14,12.14,0,0,0,2.73-1.08A17.21,17.21,0,0,0,225.63,67c.79-.6,1.57-1.25,2.35-1.93l1.22,1.17a33.27,33.27,0,0,1-2.88,3.32A22.92,22.92,0,0,1,222.07,73a24.51,24.51,0,0,1-5.81,2.64,25.09,25.09,0,0,1-7.57,1,22.87,22.87,0,0,1-8.27-1.54,20.43,20.43,0,0,1-7.16-4.61,22.62,22.62,0,0,1-5-7.67,28.08,28.08,0,0,1-1.88-10.74A28,28,0,0,1,187.5,44a26.24,26.24,0,0,1,3.05-6.69A25,25,0,0,1,195,32a27.6,27.6,0,0,1,5.4-3.73,26.07,26.07,0,0,1,5.79-2.25,23,23,0,0,1,5.68-.76,22.7,22.7,0,0,1,6.3.78,14.27,14.27,0,0,1,4.47,2.1,8.62,8.62,0,0,1,2.66,3.06,7.84,7.84,0,0,1,.88,3.63A6.89,6.89,0,0,1,224.9,39a12.23,12.23,0,0,1-3.51,3.2Zm9.81-9.91A7.2,7.2,0,0,0,213,42.9a2.72,2.72,0,0,0,.66-.88,4.55,4.55,0,0,0,.37-1.27,12.35,12.35,0,0,0,.12-1.88,15.23,15.23,0,0,0-.27-2.71,11.12,11.12,0,0,0-.9-2.81,7,7,0,0,0-1.61-2.2,3.41,3.41,0,0,0-2.35-.88,4.5,4.5,0,0,0-3,1.05,8.22,8.22,0,0,0-2,2.71,16.85,16.85,0,0,0-1.27,3.79c-.31,1.41-.54,2.84-.71,4.27s-.26,2.81-.29,4.13,0,2.43,0,3.34Z"/><path class="cls-2" d="M234.47,34.47a8,8,0,0,0-.95-3,2.39,2.39,0,0,0-2.22-1.08,3.39,3.39,0,0,0-1.44.29,8,8,0,0,0-1.3.83l-1-1.22a28.17,28.17,0,0,1,2.51-1.83,19.05,19.05,0,0,1,3-1.58,21.58,21.58,0,0,1,3.46-1.13,17.1,17.1,0,0,1,3.91-.44,9.8,9.8,0,0,1,4.73,1,8.42,8.42,0,0,1,2.86,2.49,9.72,9.72,0,0,1,1.49,3.2c.29,1.14.5,2.17.64,3.08q1.8,14.79,4.05,22.41t5.32,7.62a4.44,4.44,0,0,0,3.3-1.86,16.9,16.9,0,0,0,2.78-5.08,41.74,41.74,0,0,0,1.93-7.51,54.57,54.57,0,0,0,.73-9.18,28.89,28.89,0,0,0-.44-5.45,26.34,26.34,0,0,0-1-3.73c-.35-1-.68-1.85-1-2.52a4.4,4.4,0,0,1-.44-1.78,1.51,1.51,0,0,1,.58-1.22,5.63,5.63,0,0,1,1.4-.83,7.37,7.37,0,0,1,1.66-.49,8.37,8.37,0,0,1,1.39-.15,4.1,4.1,0,0,1,2.05.39,2.78,2.78,0,0,1,1,1.52,16.59,16.59,0,0,1,.61,3.73c.12,1.55.18,3.2.18,5a73.59,73.59,0,0,1-.52,8.25,79.73,79.73,0,0,1-1.56,9A68.3,68.3,0,0,1,269.63,62a37,37,0,0,1-3.83,7.55,20.34,20.34,0,0,1-5,5.27,10.67,10.67,0,0,1-6.28,2,11,11,0,0,1-7-2.35,19.61,19.61,0,0,1-5.05-6.1A41.32,41.32,0,0,1,239,59.86a92.12,92.12,0,0,1-2.22-9.4c-.57-3.14-1-6.11-1.36-8.93S234.73,36.36,234.47,34.47Z"/><path class="cls-2" d="M299.17,29.2a7.65,7.65,0,0,0-2.12.29,4.9,4.9,0,0,0-1.79,1A4.66,4.66,0,0,0,294,32.1a5.93,5.93,0,0,0-.44,2.37,6.36,6.36,0,0,0,1.4,3.79,32.58,32.58,0,0,0,3.46,3.9c1.39,1.36,2.88,2.75,4.49,4.2a49.91,49.91,0,0,1,4.5,4.59,25.81,25.81,0,0,1,3.46,5.15A12.74,12.74,0,0,1,312.3,62a15.38,15.38,0,0,1-1.19,6.25,12.76,12.76,0,0,1-3.42,4.64,15.25,15.25,0,0,1-5.37,2.91,23.32,23.32,0,0,1-7,1,18.59,18.59,0,0,1-6.1-1,22.38,22.38,0,0,1-4.86-2.35,21.33,21.33,0,0,1-3.64-2.95,19.67,19.67,0,0,1-2.34-2.83l1.71-1.22A17.43,17.43,0,0,0,281.69,68a15.77,15.77,0,0,0,2.17,1.59,12.58,12.58,0,0,0,2.57,1.2,8.53,8.53,0,0,0,2.78.46A9.31,9.31,0,0,0,295,69.6a5.85,5.85,0,0,0,2.25-5A7.32,7.32,0,0,0,296,60.77a30.34,30.34,0,0,0-3.08-4.08q-1.86-2.1-4-4.35a57.76,57.76,0,0,1-4-4.63,27,27,0,0,1-3.07-4.94,11.93,11.93,0,0,1-1.22-5.27,11.09,11.09,0,0,1,1.24-5.37,11.4,11.4,0,0,1,3.32-3.81,14.66,14.66,0,0,1,4.74-2.27,20.1,20.1,0,0,1,5.49-.76,28.06,28.06,0,0,1,6,.59A14.45,14.45,0,0,1,306,27.66a8.64,8.64,0,0,1,3,3,8.24,8.24,0,0,1,1.05,4.2,4.73,4.73,0,0,1-1.22,3.23,4.35,4.35,0,0,1-3.42,1.36,5,5,0,0,1-3.2-.9,3,3,0,0,1-1.1-2.47,2.38,2.38,0,0,1,.52-1.61,4.44,4.44,0,0,1,1.14-.95l1.15-.63a.81.81,0,0,0,.51-.71A2.43,2.43,0,0,0,302.93,30,7.85,7.85,0,0,0,299.17,29.2Z"/><path class="cls-2" d="M336.47,71.68a6.17,6.17,0,0,1-.22,1.51,3.41,3.41,0,0,1-1,1.66,6.59,6.59,0,0,1-2.34,1.35,12.53,12.53,0,0,1-4.13.56,10.91,10.91,0,0,1-4.05-.61,5.82,5.82,0,0,1-2.18-1.44,3.77,3.77,0,0,1-.87-1.71,7.47,7.47,0,0,1-.18-1.42v-63a4.61,4.61,0,0,0-.65-2.46,2.43,2.43,0,0,0-2.23-1,3.56,3.56,0,0,0-1.44.27,6.06,6.06,0,0,0-1.29.8l-1-1.17a28.71,28.71,0,0,1,2.49-1.83,18.21,18.21,0,0,1,3-1.59A22.63,22.63,0,0,1,323.88.44a17,17,0,0,1,3.9-.44,11.65,11.65,0,0,1,4.93.85A6.27,6.27,0,0,1,335.3,3a5.91,5.91,0,0,1,1,2.64,19.34,19.34,0,0,1,.17,2.47Z"/><path class="cls-2" d="M345.65,51a31,31,0,0,1,1.86-11.21,23.71,23.71,0,0,1,5-8,20,20,0,0,1,7.2-4.84,23.36,23.36,0,0,1,8.59-1.61,25.09,25.09,0,0,1,8.6,1.49,19.78,19.78,0,0,1,7.2,4.57A22.3,22.3,0,0,1,389,39.14a30.31,30.31,0,0,1,1.86,11.15A32,32,0,0,1,389,61.62a25.09,25.09,0,0,1-4.95,8.3,20.53,20.53,0,0,1-7.2,5.1,21.81,21.81,0,0,1-8.6,1.74,23,23,0,0,1-8.59-1.64,20.21,20.21,0,0,1-7.2-4.86,23.61,23.61,0,0,1-5-8.05A31.21,31.21,0,0,1,345.65,51Zm30-.49q0-3.9-.26-7.55a34,34,0,0,0-1.05-6.47A11.5,11.5,0,0,0,372.12,32a4.85,4.85,0,0,0-3.86-1.69,4.77,4.77,0,0,0-3.86,1.79,12.38,12.38,0,0,0-2.24,4.68,34.21,34.21,0,0,0-1,6.62q-.24,3.7-.24,7.62t.24,7.64a34.52,34.52,0,0,0,1,6.66A12.43,12.43,0,0,0,364.4,70a4.79,4.79,0,0,0,3.86,1.78,4.67,4.67,0,0,0,3.86-1.86A13.09,13.09,0,0,0,374.37,65a38.45,38.45,0,0,0,1.05-6.84Q375.67,54.39,375.68,50.49Z"/><path class="cls-2" d="M415.82,29.49V65.58a5.14,5.14,0,0,0,1,3.59,3.59,3.59,0,0,0,2.68,1,4,4,0,0,0,2.35-.74,8.15,8.15,0,0,0,1.75-1.66,10.39,10.39,0,0,0,1.52-2.39l1.51.68c-.49,1-1.07,2.19-1.73,3.42A13.48,13.48,0,0,1,418,75.59a16.24,16.24,0,0,1-6.32,1.07,13.55,13.55,0,0,1-4.13-.63,9.6,9.6,0,0,1-3.51-2,10,10,0,0,1-2.47-3.41,11.9,11.9,0,0,1-.93-4.94V29.49h-5.47V26a14.73,14.73,0,0,0,3.81-.71,18.87,18.87,0,0,0,5-2.37,20.14,20.14,0,0,0,4.76-4.44,17.08,17.08,0,0,0,3.12-6.89h3.91V26h8c2.6,0,3.91-.44,3.91-1.32a.65.65,0,0,0-.49-.66c-.33-.11-.69-.26-1.1-.44a3.56,3.56,0,0,1-1.1-.76,2.18,2.18,0,0,1-.49-1.61,2.77,2.77,0,0,1,.86-2.15,3.17,3.17,0,0,1,2.22-.78,3.08,3.08,0,0,1,1.54.37,3.28,3.28,0,0,1,1.09,1,4.2,4.2,0,0,1,.66,1.4,5.6,5.6,0,0,1,.22,1.56,6.93,6.93,0,0,1-1.83,5.05c-1.22,1.26-3.18,1.88-5.88,1.88Z"/></g></g></g></g></g></svg>